HIERARCHY
ROOT Hips
{
	OFFSET 0.000000 0.000000 0.000000
	CHANNELS 6 Xposition Yposition Zposition Xrotation Yrotation Zrotation
	JOINT LeftUpLeg_virtual
	{
		OFFSET 0.000000 0.000000 0.000000
		CHANNELS 3 Xrotation Yrotation Zrotation
		JOINT LeftUpLeg
		{
			OFFSET 10.205400 -3.823500 0.155100
			CHANNELS 3 Xrotation Yrotation Zrotation
			JOINT LeftLeg
			{
				OFFSET 0.708757 -12.982077 0.567790
				CHANNELS 3 Xrotation Yrotation Zrotation
				JOINT LeftFoot
				{
					OFFSET -0.708756 -10.717838 -2.184338
					CHANNELS 3 Xrotation Yrotation Zrotation
					JOINT LeftToeBase
					{
						OFFSET 0.108149 -7.191104 7.560241
						CHANNELS 3 Xrotation Yrotation Zrotation
						JOINT LeftToe_End
						{
							OFFSET 0.070230 0.081724 4.490308
							CHANNELS 3 Xrotation Yrotation Zrotation
							End Site
							{
								OFFSET 0 0 0
							}
						}
					}
				}
			}
		}
	}
	JOINT RightUpLeg_virtual
	{
		OFFSET 0.000000 0.000000 0.000000
		CHANNELS 3 Xrotation Yrotation Zrotation
		JOINT RightUpLeg
		{
			OFFSET -10.205400 -3.823500 0.005500
			CHANNELS 3 Xrotation Yrotation Zrotation
			JOINT RightLeg
			{
				OFFSET -0.708756 -12.982134 0.610632
				CHANNELS 3 Xrotation Yrotation Zrotation
				JOINT RightFoot
				{
					OFFSET 0.708754 -10.717769 -1.945823
					CHANNELS 3 Xrotation Yrotation Zrotation
					JOINT RightToeBase
					{
						OFFSET -0.108140 -7.191069 7.372968
						CHANNELS 3 Xrotation Yrotation Zrotation
						JOINT RightToe_End
						{
							OFFSET -0.070227 0.081735 4.479403
							CHANNELS 3 Xrotation Yrotation Zrotation
							End Site
							{
								OFFSET 0 0 0
							}
						}
					}
				}
			}
		}
	}
	JOINT Spine_virtual
	{
		OFFSET 0.000000 0.000000 0.000000
		CHANNELS 3 Xrotation Yrotation Zrotation
		JOINT Spine
		{
			OFFSET 0.000000 6.876099 0.125700
			CHANNELS 3 Xrotation Yrotation Zrotation
			JOINT Spine1
			{
				OFFSET 0.000000 5.730043 0.104720
				CHANNELS 3 Xrotation Yrotation Zrotation
				JOINT Spine1_split
				{
					OFFSET 0.000000 5.730043 0.104720
					CHANNELS 3 Xrotation Yrotation Zrotation
					JOINT Spine2
					{
						OFFSET 0.000000 5.730043 0.104720
						CHANNELS 3 Xrotation Yrotation Zrotation
						JOINT Neck_virtual
						{
							OFFSET 0.000000 0.000000 0.000000
							CHANNELS 3 Xrotation Yrotation Zrotation
							JOINT Neck
							{
								OFFSET 0.000000 10.314075 0.188496
								CHANNELS 3 Xrotation Yrotation Zrotation
								JOINT Head
								{
									OFFSET 0.000000 7.643700 -2.377400
									CHANNELS 3 Xrotation Yrotation Zrotation
									JOINT HeadTop_End
									{
										OFFSET 0.000000 43.788605 -13.619600
										CHANNELS 3 Xrotation Yrotation Zrotation
										End Site
										{
											OFFSET 0 0 0
										}
									}
								}
							}
						}
						JOINT LeftShoulder_virtual
						{
							OFFSET 0.000000 0.000000 0.000000
							CHANNELS 3 Xrotation Yrotation Zrotation
							JOINT LeftShoulder
							{
								OFFSET 2.196100 4.412489 0.087492
								CHANNELS 3 Xrotation Yrotation Zrotation
								JOINT LeftShoulder_split
								{
									OFFSET 2.196100 4.412489 0.087492
									CHANNELS 3 Xrotation Yrotation Zrotation
									JOINT LeftArm
									{
										OFFSET 8.771219 -2.981674 -0.026999
										CHANNELS 3 Xrotation Yrotation Zrotation
										JOINT LeftForeArm
										{
											OFFSET 8.512804 0.000000 -0.000000
											CHANNELS 3 Xrotation Yrotation Zrotation
											JOINT LeftHand
											{
												OFFSET 18.484802 0.000000 -0.000000
												CHANNELS 3 Xrotation Yrotation Zrotation
												End Site
												{
													OFFSET 0 0 0
												}
											}
										}
									}
								}
							}
						}
						JOINT RightShoulder_virtual
						{
							OFFSET 0.000000 0.000000 0.000000
							CHANNELS 3 Xrotation Yrotation Zrotation
							JOINT RightShoulder
							{
								OFFSET -2.196100 4.412496 0.070690
								CHANNELS 3 Xrotation Yrotation Zrotation
								JOINT RightShoulder_split
								{
									OFFSET -2.196100 4.412496 0.070690
									CHANNELS 3 Xrotation Yrotation Zrotation
									JOINT RightArm
									{
										OFFSET -8.771282 -2.981682 -0.094208
										CHANNELS 3 Xrotation Yrotation Zrotation
										JOINT RightForeArm
										{
											OFFSET -8.494598 0.000000 0.000000
											CHANNELS 3 Xrotation Yrotation Zrotation
											JOINT RightHand
											{
												OFFSET -18.483803 0.000000 0.000001
												CHANNELS 3 Xrotation Yrotation Zrotation
												End Site
												{
													OFFSET 0 0 0
												}
											}
										}
									}
								}
							}
						}
					}
				}
			}
		}
	}
}
MOTION
Frames: 11
Frame Time: 0.03333333
0.141265 27.932077 0.404186 0.000000 0.000000 0.000000 -7.388014 -51.341347 -1.105838 -31.847225 10.315029 22.657018 62.326364 -5.163719 3.452167 -31.290548 -4.854098 -21.483310 -2.548287 0.289656 1.261652 0.000000 0.000000 0.000000 -8.021992 -48.479621 -0.414630 -16.058408 -6.951586 -37.283199 58.697314 -5.757695 -10.703753 -30.017377 -9.441052 27.632690 0.061847 1.208821 1.226759 0.000000 0.000000 0.000000 -6.530618 -47.209759 -0.098182 11.036461 8.377007 -1.292301 1.492042 1.707269 -0.797444 0.734568 0.798482 0.387324 0.000000 0.000000 0.000000 2.308630 0.935379 -0.636922 -1.470623 10.558757 3.165450 8.780178 20.370623 -4.510220 0.000000 0.000000 0.000000 2.664207 0.861258 -0.856881 0.669366 1.503976 -5.171420 -1.515096 -1.202145 -1.826801 -53.296881 2.997695 -50.179515 -172.357583 -75.214753 -168.308033 0.000000 0.000000 0.000000 3.284126 1.191463 -0.820780 2.288427 11.432801 -7.138620 0.282114 -0.171352 1.637797 -53.468411 30.260316 85.670284 -179.019436 70.143324 177.348744 0.000000 0.000000 0.000000 
0.159045 27.975624 0.485693 0.000000 0.000000 0.000000 -7.102379 -51.359239 -0.826974 -31.449804 10.098886 22.473001 62.584668 -5.405076 3.567824 -30.840824 -4.602089 -21.193153 -2.774192 0.249406 1.185170 0.000000 0.000000 0.000000 -8.141960 -48.355130 -0.342121 -15.748393 -7.440296 -37.278623 58.376582 -6.130901 -10.487778 -30.561511 -9.678020 26.993037 0.663187 1.276466 1.011688 0.000000 0.000000 0.000000 -6.478865 -47.083165 -0.158045 10.979675 8.402967 -1.447853 1.457816 1.595975 -0.764313 0.894603 1.456531 0.679949 0.000000 0.000000 0.000000 2.157577 0.918513 -0.624609 -1.682522 11.023822 3.052768 8.362429 20.637698 -4.459667 0.000000 0.000000 0.000000 2.702669 0.800861 -0.765143 0.665606 0.887055 -5.442385 -0.749382 -1.230831 -0.714411 -53.965024 4.295273 -50.431999 -176.936269 -75.528478 -173.116281 0.000000 0.000000 0.000000 3.254661 1.145658 -0.748957 2.263286 11.706496 -7.044847 0.254386 -0.673097 1.245448 -53.602713 30.174130 85.200470 -179.149769 69.829286 177.529826 0.000000 0.000000 0.000000 
0.155200 28.061907 0.527431 0.000000 0.000000 0.000000 -6.817436 -51.301209 -0.517259 -30.831761 10.019571 22.548650 62.476628 -6.220950 3.444388 -30.475611 -4.324870 -20.918006 -3.034887 0.168401 1.043573 0.000000 0.000000 0.000000 -8.183104 -48.419549 -0.230536 -15.241977 -8.173048 -37.231382 57.446734 -6.236222 -10.146372 -31.112253 -9.903777 26.133960 0.449296 1.377587 0.602721 0.000000 0.000000 0.000000 -6.203577 -47.263051 -0.085859 10.820912 8.469920 -1.636785 1.428060 1.493964 -0.797970 0.643865 1.455035 0.643088 0.000000 0.000000 0.000000 1.999006 0.985369 -0.689577 -1.859013 11.751637 3.094314 8.019130 21.166763 -4.017708 0.000000 0.000000 0.000000 2.807490 0.833780 -0.721058 0.567018 -0.083726 -5.701058 -0.049931 -0.102003 0.929687 -55.157063 6.479807 -49.939662 179.344348 -74.241820 -177.131694 0.000000 0.000000 0.000000 3.121455 1.197232 -0.733974 2.262971 11.983511 -6.494367 0.045151 -1.211758 0.861431 -54.044347 30.839663 84.555659 -179.494831 69.518143 177.936769 0.000000 0.000000 0.000000 
0.171567 28.173059 0.585392 0.000000 0.000000 0.000000 -6.592383 -51.450900 -0.298195 -30.068129 10.349886 22.924154 61.962984 -7.337291 2.999189 -30.316631 -3.855321 -20.619564 -3.208495 0.057818 0.844386 0.000000 0.000000 0.000000 -8.058296 -48.991861 -0.108160 -14.724491 -8.935792 -37.093405 56.052453 -5.941129 -9.748749 -31.259460 -10.020206 25.169100 -0.574475 1.440518 0.236497 0.000000 0.000000 0.000000 -5.761149 -48.075349 0.166531 10.510099 8.578549 -1.819253 1.402021 1.476486 -0.900393 0.288286 1.170881 0.506831 0.000000 0.000000 0.000000 1.854762 1.160028 -0.807005 -1.994837 12.504372 3.271647 7.840691 22.197225 -3.415634 0.000000 0.000000 0.000000 2.834992 0.990794 -0.773129 0.455679 -1.002012 -5.708127 0.530737 1.442108 2.347399 -56.004788 8.515929 -49.122058 178.343110 -72.218951 -178.589530 0.000000 0.000000 0.000000 2.935043 1.353311 -0.821174 2.251349 12.207122 -5.560256 -0.125615 -1.330850 0.490382 -54.785405 32.277394 83.997844 -179.855492 69.218708 178.368136 0.000000 0.000000 0.000000 
0.176512 28.285135 0.754927 0.000000 0.000000 0.000000 -6.354603 -52.270085 -0.176515 -29.170901 11.175585 23.573515 60.965401 -8.331293 2.224002 -30.685380 -3.012545 -19.995872 -3.279340 -0.061936 0.651594 0.000000 0.000000 0.000000 -7.605726 -50.281684 0.086685 -14.548989 -9.281402 -36.854888 54.406152 -5.118648 -9.367432 -30.802555 -9.917455 24.305877 -1.793694 1.407824 0.072073 0.000000 0.000000 0.000000 -5.112228 -49.525934 0.622453 10.065646 8.694824 -1.962204 1.320275 1.571444 -1.067534 -0.047140 0.842233 0.181447 0.000000 0.000000 0.000000 1.721674 1.412732 -0.988791 -2.138823 13.175748 3.468488 7.612645 23.782729 -2.902437 0.000000 0.000000 0.000000 2.756064 1.268500 -0.905196 0.344284 -1.463509 -5.237256 0.299770 2.002858 2.589805 -55.371565 10.038461 -47.686270 179.212143 -69.592053 -178.196111 0.000000 0.000000 0.000000 2.723603 1.585535 -0.991745 2.181362 12.227280 -4.540991 -0.310662 -1.497121 0.228224 -55.990346 34.632624 83.844445 179.855710 69.098217 178.710657 0.000000 0.000000 0.000000 
0.198943 28.395325 1.024912 0.000000 0.000000 0.000000 -6.046648 -54.100009 -0.139399 -28.051554 12.432825 24.397779 59.583606 -8.875314 1.260612 -31.606776 -1.749284 -18.878247 -3.254973 -0.167893 0.494811 0.000000 0.000000 0.000000 -6.887967 -52.424755 0.287206 -14.945530 -9.035077 -36.440412 52.802632 -3.805611 -9.058381 -29.812027 -9.543148 23.652306 -2.457035 1.268044 0.198720 0.000000 0.000000 0.000000 -4.404352 -51.748969 1.105080 9.604042 8.722269 -2.047960 1.133369 1.739320 -1.294799 -0.227964 0.417736 0.239827 0.000000 0.000000 0.000000 1.597410 1.668211 -1.188888 -2.483411 13.720831 3.657025 7.168812 25.744508 -2.725150 0.000000 0.000000 0.000000 2.587303 1.577874 -1.058746 0.267950 -1.090811 -4.080078 -0.285203 1.706195 1.952583 -53.586796 10.229126 -45.750612 -179.173511 -67.244414 -177.037752 0.000000 0.000000 0.000000 2.568129 1.820261 -1.201231 2.023304 11.903943 -3.712881 -0.624857 -2.140513 0.138665 -57.704771 37.840751 84.358942 179.742398 69.465531 178.899129 0.000000 0.000000 0.000000 
0.243133 28.498955 1.330791 0.000000 0.000000 0.000000 -5.633152 -56.954359 -0.141502 -26.798561 13.874501 25.304854 58.128789 -9.010553 0.379599 -32.880053 -0.208550 -17.315412 -3.242571 -0.255058 0.455880 0.000000 0.000000 0.000000 -6.128263 -55.225850 0.436658 -15.743627 -8.274319 -35.775100 51.447785 -2.162819 -8.855059 -28.758068 -8.925014 23.045658 -2.210896 1.089878 0.508955 0.000000 0.000000 0.000000 -3.650685 -54.309501 1.501296 9.165347 8.657100 -2.016319 0.916474 1.868711 -1.503195 -0.053958 0.409277 0.664984 0.000000 0.000000 0.000000 1.530610 1.800253 -1.329397 -3.207883 14.235136 3.808350 6.434645 27.933643 -2.971709 0.000000 0.000000 0.000000 2.293295 1.772606 -1.174942 0.115294 -0.048581 -2.403239 -0.470855 0.890772 0.654573 -52.445809 8.492013 -43.103541 -177.959636 -66.661055 -176.163529 0.000000 0.000000 0.000000 2.428281 1.955313 -1.359589 1.811204 11.274042 -3.243857 -0.778162 -3.091878 0.311514 -59.871369 41.637489 85.434144 179.860246 70.404647 178.886807 0.000000 0.000000 0.000000 
0.290194 28.584324 1.658062 0.000000 0.000000 0.000000 -5.327198 -60.262021 -0.274234 -25.528271 15.248741 26.089979 56.834042 -8.807552 -0.231057 -34.301470 1.322916 -15.455608 -3.138189 -0.327463 0.498860 0.000000 0.000000 0.000000 -5.526671 -58.250742 0.454091 -16.664070 -7.173910 -34.795282 50.332163 -0.418793 -8.824440 -28.033154 -8.220965 22.516344 -1.233966 0.967498 0.827611 0.000000 0.000000 0.000000 -3.014527 -56.763626 1.607102 8.806945 8.446547 -1.820683 0.711116 1.798957 -1.618398 0.526373 0.170703 0.916399 0.000000 0.000000 0.000000 1.505895 1.664421 -1.365601 -4.388195 14.787148 3.949906 5.445811 30.037833 -3.611691 0.000000 0.000000 0.000000 2.004057 1.691999 -1.183633 -0.129807 1.258569 -0.401188 -0.230428 0.191727 -0.951430 -52.990288 4.556616 -38.927075 -176.680820 -70.822259 -174.853294 0.000000 0.000000 0.000000 2.204870 1.852167 -1.372609 1.582833 10.392632 -3.145291 -0.769217 -4.088106 0.506959 -62.310361 45.422783 86.854243 -179.836818 71.704904 178.707419 0.000000 0.000000 0.000000 
0.390321 28.663605 1.993814 0.000000 0.000000 0.000000 -5.162230 -63.260898 -0.533770 -24.389197 16.388330 26.530123 55.960413 -8.539113 -0.487038 -35.490845 2.638196 -13.694738 -2.793766 -0.372838 0.509353 0.000000 0.000000 0.000000 -5.412401 -60.911811 0.145765 -17.323991 -6.113472 -33.691001 49.413448 1.243926 -9.063057 -27.574911 -7.618845 22.302173 -0.258221 0.962431 0.976397 0.000000 0.000000 0.000000 -2.714650 -58.915532 1.326228 8.542231 8.115377 -1.464377 0.626027 1.493203 -1.605922 1.041888 -0.198729 1.255832 0.000000 0.000000 0.000000 1.492096 1.250795 -1.275822 -5.792644 15.351844 4.070887 4.351309 31.775276 -4.454964 0.000000 0.000000 0.000000 1.854631 1.258999 -1.080979 -0.369979 2.167860 1.816101 0.045368 0.356186 -1.549647 -54.895094 -1.702105 -33.561436 -170.692001 -83.128361 -168.592988 0.000000 0.000000 0.000000 1.947184 1.464191 -1.240954 1.360178 9.423201 -3.298458 -0.737018 -4.571940 0.731267 -64.412816 48.538442 87.924001 -179.278477 72.848428 178.283893 0.000000 0.000000 0.000000 
0.504828 28.754150 2.302660 0.000000 0.000000 0.000000 -5.113455 -65.316416 -0.808988 -23.479030 17.242806 26.443781 55.445382 -8.419870 -0.505233 -36.264930 3.556776 -12.302574 -2.319574 -0.393202 0.440631 0.000000 0.000000 0.000000 -5.844669 -62.672259 -0.399374 -17.473118 -5.294806 -32.770869 48.640796 2.684988 -9.631448 -27.070068 -7.342274 22.582617 -0.015389 1.039322 0.883386 0.000000 0.000000 0.000000 -2.931740 -60.332994 0.742680 8.318634 7.728539 -0.966416 0.687484 1.046744 -1.470675 1.232640 -0.472905 0.969163 0.000000 0.000000 0.000000 1.438295 0.666982 -1.094360 -6.985144 15.800345 4.100804 3.440377 32.871774 -5.193301 0.000000 0.000000 0.000000 1.910239 0.597729 -0.941023 -0.505296 2.181158 3.891925 -0.498165 0.535734 -1.057794 -56.488649 -8.730434 -28.016032 -4.519433 -76.516287 -1.818204 0.000000 0.000000 0.000000 1.762061 0.866126 -1.008691 1.207201 8.537348 -3.596451 -0.770706 -4.329480 1.056660 -65.372936 50.529811 87.724279 -178.677803 73.174487 177.798457 0.000000 0.000000 0.000000 
0.623479 28.857147 2.596148 0.000000 0.000000 0.000000 -5.315374 -66.106935 -1.029575 -22.717592 17.875843 25.704896 55.118660 -8.458955 -0.501231 -36.552413 3.990069 -11.316343 -1.934449 -0.391375 0.292455 0.000000 0.000000 0.000000 -6.577844 -63.257742 -0.915954 -17.226751 -4.874527 -32.402561 48.030000 3.839997 -10.468260 -26.313533 -7.525922 23.343321 -0.647515 1.094266 0.668569 0.000000 0.000000 0.000000 -3.543101 -61.191460 0.153202 8.096361 7.367585 -0.423970 0.817930 0.634338 -1.271669 1.211038 -0.877792 0.302617 0.000000 0.000000 0.000000 1.335866 0.143262 -0.902660 -7.552907 16.004308 4.034110 2.991593 33.289225 -5.749256 0.000000 0.000000 0.000000 2.144023 -0.010039 -0.778797 -0.471299 1.688738 5.415853 -1.122358 0.630577 0.180288 -56.862650 -14.922681 -23.693228 -2.808427 -55.706804 0.829538 0.000000 0.000000 0.000000 1.723698 0.283381 -0.785226 1.171234 7.755682 -3.852076 -1.164538 -3.475006 1.226797 -64.751641 51.153390 85.919320 -178.339326 72.492035 177.535263 0.000000 0.000000 0.000000 
